# xmcd CD database file
#
# Track frame offsets:
#	187
#	23617
#	49155
#	73345
#	93617
#	111147
#	131775
#	152595
#	169215
#	185255
#
# Disc length: 2730 seconds
#
# Revision: 1
# Processed by: cddbd v1.5.2PL0 Copyright (c) Steve Scherf et al.
# Submitted via: CDex 1.70beta2
#
DISCID=870aa80a
DTITLE=堀井勝美 - Charming
DYEAR=1992
DGENRE=Fusion
TTITLE0=天使の休息 (久松史奈)
TTITLE1=My Christmas Wish
TTITLE2=Kissing
TTITLE3=天使の休息 (Instrumental Version)
TTITLE4=Matrix
TTITLE5=Eternal Recurrence
TTITLE6=風の姿 (Instrumental Version)
TTITLE7=Dame
TTITLE8=Mystique
TTITLE9=風の姿 ～テーマソング・バージョン～ (中江有里)
EXTD=YEAR: 1992
EXTT0=
EXTT1=
EXTT2=
EXTT3=
EXTT4=
EXTT5=
EXTT6=
EXTT7=
EXTT8=
EXTT9=
PLAYORDER=
